<?xml version="1.0" standalone="no"?>
<!DOCTYPE svg PUBLIC "-//W3C//DTD SVG 20010904//EN"
 "http://www.w3.org/TR/2001/REC-SVG-20010904/DTD/svg10.dtd">
<svg version="1.0" xmlns="http://www.w3.org/2000/svg"
 width="200.000000pt" height="200.000000pt" viewBox="0 0 200.000000 200.000000"
 preserveAspectRatio="xMidYMid meet">

<g transform="translate(0.000000,200.000000) scale(0.100000,-0.100000)"
fill="#000000" stroke="none">
<path d="M30 1001 c0 -165 3 -302 8 -304 4 -3 6 129 4 294 l-3 299 961 0 960
0 -2 -292 -3 -293 -950 -5 -950 -5 942 -3 c518 -1 948 1 957 4 14 5 16 42 16
305 l0 299 -970 0 -970 0 0 -299z"/>
<path d="M90 995 l0 -245 525 0 525 0 0 245 0 245 -525 0 -525 0 0 -245z m152
68 c39 -35 16 -88 -42 -98 -34 -6 -40 -11 -40 -31 0 -13 -4 -24 -10 -24 -6 0
-10 35 -10 85 l0 85 42 0 c24 0 49 -7 60 -17z m205 -5 c31 -29 32 -92 1 -125
-51 -54 -148 -14 -148 62 0 75 92 114 147 63z m145 -40 l43 -61 3 61 c4 93 22
75 22 -23 0 -104 -10 -107 -65 -25 l-40 60 -3 -60 c-4 -76 -19 -78 -24 -2 -4
70 1 112 12 112 5 0 28 -28 52 -62z m266 46 c12 -8 22 -22 22 -30 0 -19 -6
-18 -40 7 -35 26 -76 19 -92 -16 -26 -57 27 -114 80 -85 40 23 39 40 -2 40
-20 0 -36 5 -36 10 0 6 23 10 51 10 43 0 50 -3 45 -16 -3 -9 -6 -19 -6 -23 0
-4 -9 -17 -20 -29 -49 -53 -144 -11 -144 63 0 70 83 111 142 69z m222 -9 c53
-56 15 -145 -62 -145 -52 0 -88 35 -88 85 0 77 97 116 150 60z"/>
<path d="M160 1024 c0 -34 1 -35 33 -32 25 2 33 8 35 27 4 26 -12 41 -45 41
-20 0 -23 -5 -23 -36z"/>
<path d="M348 1043 c-30 -35 -31 -61 -3 -89 20 -20 32 -24 53 -19 38 9 46 20
46 61 0 57 -61 87 -96 47z"/>
<path d="M977 1042 c-26 -28 -22 -78 7 -97 64 -42 130 41 76 95 -25 25 -62 26
-83 2z"/>
<path d="M1575 1083 c-52 -13 -77 -71 -51 -121 17 -33 34 -42 80 -42 31 0 76
30 76 50 0 14 -44 12 -57 -1 -7 -7 -23 -9 -37 -5 -21 5 -26 13 -26 36 0 40 32
58 65 36 27 -18 55 -21 55 -6 0 13 -37 50 -49 50 -5 0 -15 2 -23 4 -7 2 -22 1
-33 -1z"/>
<path d="M1200 1060 c0 -15 7 -20 25 -20 24 0 25 -3 25 -60 0 -57 1 -60 25
-60 24 0 25 3 25 60 0 57 1 60 25 60 18 0 25 5 25 20 0 18 -7 20 -75 20 -68 0
-75 -2 -75 -20z"/>
<path d="M1380 1000 l0 -80 55 0 c49 0 55 2 55 21 0 17 -5 20 -32 17 -24 -2
-33 1 -33 12 0 8 7 16 15 16 8 1 21 2 28 3 6 0 12 8 12 16 0 10 -10 15 -30 15
-20 0 -30 5 -30 15 0 10 11 15 35 15 24 0 35 5 35 15 0 12 -13 15 -55 15 l-55
0 0 -80z"/>
<path d="M1710 1000 c0 -79 0 -80 25 -80 21 0 25 5 25 30 0 25 4 30 25 30 21
0 25 -5 25 -30 0 -25 4 -30 25 -30 25 0 25 1 25 80 0 79 0 80 -25 80 -21 0
-25 -5 -25 -30 0 -25 -4 -30 -25 -30 -21 0 -25 5 -25 30 0 25 -4 30 -25 30
-25 0 -25 -1 -25 -80z"/>
</g>
</svg>
